<?xml version="1.0" encoding="utf-8"?>
<!-- Generator: Adobe Illustrator 15.0.0, SVG Export Plug-In  -->
<!DOCTYPE svg PUBLIC "-//W3C//DTD SVG 1.1//EN" "http://www.w3.org/Graphics/SVG/1.1/DTD/svg11.dtd" [
	<!ENTITY ns_flows "http://ns.adobe.com/Flows/1.0/">
]>
<svg version="1.1"
	 xmlns="http://www.w3.org/2000/svg" xmlns:xlink="http://www.w3.org/1999/xlink" xmlns:a="http://ns.adobe.com/AdobeSVGViewerExtensions/3.0/"
	 x="0px" y="0px" width="138px" height="131px" viewBox="4 0 138 131" overflow="visible" enable-background="new 4 0 138 131"
	 xml:space="preserve">
<defs>
</defs>
<rect fill="#000222" width="148" height="131"/>
<g>
	<path fill="#FFFFFF" d="M114.4,105c-1.5,0.6-3.5,2.2-4.3,3.7l-0.3,0.4c-0.8,1.4-2.8,2.8-4.5,3.1l-0.5,0.1c-1.6,0.3-3.9,1.5-5,2.7
		l-0.3,0.4c-1.1,1.2-3.4,2.2-5,2.1l-0.5,0c-1.6-0.1-4.1,0.6-5.4,1.6l-0.4,0.3c-1.3,1-3.7,1.4-5.3,1l-0.5-0.1
		c-1.6-0.4-4.1-0.2-5.6,0.4l-0.5,0.2c-1.5,0.7-4,0.6-5.4-0.1l-0.5-0.2c-1.5-0.7-4-1.1-5.6-0.7l-0.5,0.1c-1.6,0.3-4-0.2-5.3-1.3
		l-0.4-0.5c-1.3-1-3.7-2-5.3-2h-0.5c-1.6,0-3.9-0.9-4.9-2.2l-0.3-0.3c-1-1.3-3.2-2.6-4.8-2.9l-0.5-0.1c-1.6-0.3-3.5-1.8-4.3-3.3
		l-0.2-0.4c-0.8-1.5-2.6-3.2-4.1-3.9l-0.5-0.2c-1.5-0.7-3.1-2.5-3.5-4.1L29.4,98c-0.4-1.6-1.9-3.7-3.2-4.7L25.8,93
		c-1.3-1-2.5-3.1-2.6-4.8l0-0.5c-0.1-1.6-1.1-4-2.2-5.2l-0.3-0.4c-1.1-1.2-1.8-3.6-1.5-5.2l0.1-0.5c0.3-1.6-0.2-4.1-1-5.6l-0.3-0.4
		c-0.8-1.4-1-3.9-0.4-5.4l0.2-0.5c0.6-1.5,0.7-4.1,0.2-5.7l-0.2-0.5c-0.5-1.6-0.2-4,0.7-5.4l0.3-0.4c0.9-1.4,1.5-3.9,1.3-5.5
		l-0.1-0.5c-0.2-1.6,0.6-3.9,1.8-5.1l0.4-0.4c1.2-1.2,2.3-3.5,2.4-5.1l0.1-0.5c0.2-1.6,1.5-3.7,2.8-4.6l0.4-0.3
		c1.4-0.9,2.9-2.9,3.5-4.5l0.2-0.5c0.5-1.6,2.2-3.3,3.7-3.9l0.5-0.2c1.5-0.6,3.5-2.2,4.3-3.7l0.3-0.4c0.8-1.4,2.8-2.8,4.5-3.1
		l0.5-0.1c1.6-0.3,3.9-1.5,5-2.7l0.3-0.4c1.1-1.2,3.4-2.2,5-2.1l0.5,0c1.6,0.1,4.1-0.6,5.4-1.6L62,7.4c1.3-1,3.7-1.4,5.3-1l0.5,0.1
		c1.6,0.4,4.1,0.2,5.6-0.4l0.5-0.2c1.5-0.7,4-0.6,5.4,0.1l0.5,0.2c1.5,0.7,4,1.1,5.6,0.7l0.5-0.1c1.6-0.3,4,0.2,5.3,1.3l0.4,0.3
		c1.3,1,3.7,1.9,5.3,1.9l0.5,0c1.7,0,3.9,1.1,4.9,2.3l0.3,0.4c1,1.3,3.2,2.6,4.8,3l0.5,0.1c1.6,0.3,3.5,1.8,4.3,3.3l0.2,0.4
		c0.8,1.5,2.6,3.2,4.1,3.9l0.5,0.2c1.5,0.7,3.1,2.5,3.5,4.1l0.1,0.5c0.4,1.6,1.9,3.7,3.2,4.7l0.4,0.3c1.3,1,2.5,3.1,2.6,4.8l0,0.5
		c0.1,1.6,1.1,4,2.2,5.2l0.3,0.4c1.1,1.2,1.8,3.6,1.5,5.2l-0.1,0.5c-0.3,1.6,0.2,4.1,1,5.6l0.3,0.4c0.8,1.4,1,3.9,0.4,5.4l-0.2,0.5
		c-0.6,1.5-0.7,4.1-0.2,5.7l0.2,0.5c0.5,1.6,0.2,4-0.7,5.4l-0.3,0.4c-0.9,1.4-1.5,3.9-1.3,5.5l0,0.5c0.2,1.6-0.6,3.9-1.8,5.1
		l-0.4,0.4c-1.2,1.2-2.3,3.5-2.4,5.1l-0.1,0.5c-0.2,1.6-1.5,3.7-2.8,4.6l-0.4,0.3c-1.4,0.9-2.9,2.9-3.5,4.5l-0.2,0.5
		c-0.5,1.6-2.2,3.3-3.7,3.9L114.4,105z"/>
</g>
<path d="M59.6,37.6c2,0,4.1-0.4,6.1-1.2c1.8-0.7,3.2-1.7,4.1-2.7c3.3,4.5,5.4,10.1,5.4,16.3c0,0,0,39.4,0,41.1
	c0,0.8,0.2,2.2,0.9,2.7c1.2,0.8,2.2-0.8,2.3-1.8c0.1-1.7-0.1-3.6-0.1-5.3c0-2.6,0-5.2,0-7.9c2.2,1.3,5.2,2.3,8.3,2.3
	c1.6,0,3.1-0.3,4.5-0.8c3.1-1.3,5.7-3.6,7.2-6.4c1.4-2.6,1.7-5.5,0.9-7.5c-1.7-4.2-8.9-6.9-15.6-4.1c-2.4,1-4.1,2.8-5.3,4.4V50
	c0-7.7-2.8-14.7-7.3-19.9c-0.1-0.1-1.6-3.8-2.6-5.2c-1.3-1.6-4-4.5-7.8-5.4c-7-1.6-13.6,2.4-14.6,6.8c-1,4.5,3.8,9.5,10.7,11
	C57.5,37.5,58.5,37.6,59.6,37.6z M79.5,70.2c1.3-2.5,3.2-4.4,5.2-5.3c1.5-0.6,3-0.9,4.5-0.9c3.5,0,6.4,1.6,7.1,3.4
	c0.5,1.2,0.2,3.1-0.8,4.9c-1.2,2.2-3.2,4-5.7,5c-4.8,2-11.1-1.3-11.6-2.5c0-0.1-0.1-0.6-0.1-0.6C78.2,73.5,78.6,72,79.5,70.2z
	 M48.9,26.9c0.5-2.2,4-4.7,8.4-4.7c0.8,0,1.7,0.1,2.5,0.3c2.1,0.5,4.4,2,6.1,4.3c1.6,2.1,2.1,3.9,2,4.4c-0.1,0.4-1.2,1.5-3.4,2.4
	c-2.4,1-5.1,1.2-7.3,0.7C51.6,33.1,48.3,29.4,48.9,26.9z"/>
<path d="M64.1,101.1H58c-0.8,0-1.5,0.7-1.5,1.5c0,0.8,0.7,1.5,1.5,1.5h6.1c0.8,0,1.5-0.7,1.5-1.5C65.6,101.8,65,101.1,64.1,101.1z"
	/>
<path d="M79.4,101.1h-6.1c-0.8,0-1.5,0.7-1.5,1.5c0,0.8,0.7,1.5,1.5,1.5h6.1c0.8,0,1.5-0.7,1.5-1.5
	C80.9,101.8,80.2,101.1,79.4,101.1z"/>
<path d="M94.7,101.1h-6.1c-0.8,0-1.5,0.7-1.5,1.5c0,0.8,0.7,1.5,1.5,1.5h6.1c0.8,0,1.5-0.7,1.5-1.5
	C96.2,101.8,95.5,101.1,94.7,101.1z"/>
</svg>
